<?xml version="1.0" encoding="iso-8859-1"?>
<!-- Generator: Adobe Illustrator 19.0.0, SVG Export Plug-In . SVG Version: 6.00 Build 0)  -->
<svg version="1.1" id="Capa_1" xmlns="http://www.w3.org/2000/svg" xmlns:xlink="http://www.w3.org/1999/xlink" x="0px" y="0px"
	 viewBox="0 0 480 480" style="enable-background:new 0 0 480 480;" xml:space="preserve">
<polygon style="fill:#D6705A;" points="248,120 105.472,120 8,120 8,360 180.672,360 248,243.392 "/>
<path style="fill:#EFC95B;" d="M280,8c-77.48,0-144.192,45.92-174.528,112H248v123.392L291.528,168L397.6,351.72
	c45.248-35.128,74.4-90,74.4-151.72C472,93.96,386.04,8,280,8z"/>
<polygon style="fill:#2BB0AF;" points="248,243.392 180.672,360 116.016,472 467.04,472 397.6,351.72 291.528,168 "/>
<path style="fill:#383838;" d="M280,0c-76.152,0-145.952,43.832-179.448,112H8c-4.416,0-8,3.584-8,8v240c0,4.416,3.584,8,8,8
	h158.816L109.08,468c-1.424,2.48-1.424,5.52,0,8c1.432,2.48,4.072,4,6.928,4H467.04c2.856,0,5.504-1.52,6.928-4s1.424-5.52,0-8
	L407.92,353.584C453.784,315.416,480,259.864,480,200C480,89.72,390.28,0,280,0z M16,352V128h224v113.248L176.056,352H16z
	 M129.864,464l161.664-280l161.664,280H129.864z M399.808,339.544L298.456,164c-2.856-4.952-11-4.952-13.856,0L256,213.536V120
	c0-4.416-3.584-8-8-8H118.456C150.504,53.296,212.584,16,280,16c101.456,0,184,82.544,184,184
	C464,254.144,440.704,304.48,399.808,339.544z"/>
<g>
</g>
<g>
</g>
<g>
</g>
<g>
</g>
<g>
</g>
<g>
</g>
<g>
</g>
<g>
</g>
<g>
</g>
<g>
</g>
<g>
</g>
<g>
</g>
<g>
</g>
<g>
</g>
<g>
</g>
</svg>
